<?xml version="1.0" encoding="utf-8"?>
<svg id="master-artboard" viewBox="0 0 997.8715209960938 475.8837890625" version="1.1" xmlns="http://www.w3.org/2000/svg" x="0px" y="0px" style="enable-background:new 0 0 1400 980;" width="997.8715209960938px" height="475.8837890625px"><defs><style id="ee-google-fonts">@import url(https://fonts.googleapis.com/css?family=Cantata+One:400);</style></defs><rect id="ee-background" x="0" y="0" width="997.8715209960938" height="475.8837890625" style="fill: white; fill-opacity: 0; pointer-events: none;"/>


<path d="M 500.2394714355469 973.280029296875 C 494.95947265625 979.3400268554688 487.8761291503906 982.3699951171875 478.9894714355469 982.3699951171875 C 472.2427978515625 982.3699951171875 466.4294738769531 980.489990234375 461.5494689941406 976.72998046875 C 456.6761169433594 972.969970703125 454.2394714355469 968.0466918945312 454.2394714355469 961.9600219726562 C 454.2394714355469 955.8800048828125 456.6327819824219 951.0966796875 461.4194641113281 947.6099853515625 C 466.199462890625 944.1233520507812 472.36279296875 942.3800048828125 479.9094543457031 942.3800048828125 C 487.449462890625 942.3800048828125 493.74945068359375 944.27001953125 498.8094482421875 948.0499877929688 L 498.8094482421875 931.780029296875 C 498.8094482421875 926.2666625976562 498.1261291503906 922.530029296875 496.75946044921875 920.5700073242188 C 495.3927917480469 918.6099853515625 493.7861328125 917.2433471679688 491.939453125 916.469970703125 C 490.0928039550781 915.6966552734375 488.05279541015625 915.3099975585938 485.8194580078125 915.3099975585938 C 482.31280517578125 915.3099975585938 479.3494567871094 915.7066650390625 476.9294738769531 916.5 C 474.5161437988281 917.2999877929688 472.89947509765625 918.1099853515625 472.0794677734375 918.9299926757812 C 474.1794738769531 919.5700073242188 475.796142578125 921.163330078125 476.9294738769531 923.7100219726562 C 477.296142578125 924.6233520507812 477.4794616699219 925.719970703125 477.4794616699219 927 C 477.4794616699219 929.5066528320312 476.5694580078125 931.5900268554688 474.74945068359375 933.25 C 472.92279052734375 934.9166870117188 471.0994567871094 935.75 469.2794494628906 935.75 C 466.08612060546875 935.75 463.602783203125 934.9066772460938 461.8294677734375 933.219970703125 C 460.0494689941406 931.5333251953125 459.1594543457031 929.5033569335938 459.1594543457031 927.1300048828125 C 459.1594543457031 924.7633056640625 459.5928039550781 922.816650390625 460.45947265625 921.2899780273438 C 461.3261413574219 919.7633056640625 462.4894714355469 918.3833618164062 463.949462890625 917.1500244140625 C 466.7294616699219 914.8300170898438 470.22613525390625 913.0533447265625 474.439453125 911.8200073242188 C 478.6528015136719 910.586669921875 482.60614013671875 909.969970703125 486.2994689941406 909.969970703125 C 496.55279541015625 909.969970703125 504.13946533203125 912.0466918945312 509.0594482421875 916.2000122070312 C 513.9861450195312 920.3466796875 516.449462890625 926.1333618164062 516.449462890625 933.5599975585938 L 516.449462890625 969.989990234375 C 516.449462890625 973.7766723632812 517.3828125 975.6699829101562 519.2494506835938 975.6699829101562 C 521.1161499023438 975.6699829101562 522.9161376953125 974.530029296875 524.6494750976562 972.25 L 528.199462890625 975.1900024414062 C 525.1061401367188 979.8833618164062 520.0494384765625 982.22998046875 513.0294799804688 982.22998046875 C 510.5694580078125 982.22998046875 508.0727844238281 981.4566650390625 505.5394592285156 979.9099731445312 C 503.0127868652344 978.356689453125 501.2461242675781 976.1466674804688 500.2394714355469 973.280029296875 M 499.00946044921875 954.1300048828125 C 495.1361389160156 950.3499755859375 490.89947509765625 948.4600219726562 486.2994689941406 948.4600219726562 C 481.699462890625 948.4600219726562 478.23614501953125 949.5433349609375 475.9094543457031 951.7100219726562 C 473.5827941894531 953.8766479492188 472.4194641113281 957.3499755859375 472.4194641113281 962.1300048828125 C 472.4194641113281 969.1966552734375 474.9028015136719 973.47998046875 479.8694763183594 974.97998046875 C 481.2828063964844 975.4400024414062 482.7194519042969 975.6699829101562 484.1794738769531 975.6699829101562 C 488.3261413574219 975.6699829101562 492.29278564453125 974.0733032226562 496.0794677734375 970.8800048828125 C 497.17279052734375 969.9266357421875 498.14947509765625 968.9033203125 499.00946044921875 967.8099975585938 L 499.00946044921875 954.1300048828125 ZM 555.6087646484375 894.3900146484375 C 555.6087646484375 894.3900146484375 555.152099609375 894.8466796875 554.23876953125 895.760009765625 C 553.325439453125 896.6666870117188 551.5721435546875 897.1199951171875 548.9788208007812 897.1199951171875 C 546.3787841796875 897.1199951171875 544.1454467773438 896.219970703125 542.27880859375 894.4199829101562 C 540.4054565429688 892.6199951171875 539.4688110351562 890.7166748046875 539.4688110351562 888.7100219726562 C 539.4688110351562 885.3433227539062 540.3821411132812 882.7466430664062 542.2088012695312 880.9199829101562 C 544.02880859375 879.0999755859375 546.2621459960938 878.1900024414062 548.9088134765625 878.1900024414062 C 553.1021118164062 878.1900024414062 555.9954833984375 880.1033325195312 557.5888061523438 883.9299926757812 C 558.0888061523438 885.0700073242188 558.3388061523438 886.2999877929688 558.3388061523438 887.6199951171875 C 558.3388061523438 890.306640625 557.4287719726562 892.5633544921875 555.6087646484375 894.3900146484375 M 528.8087768554688 975.6699829101562 L 539.8787841796875 975.6699829101562 L 539.8787841796875 916.4000244140625 L 529.768798828125 916.4000244140625 L 529.768798828125 911.0700073242188 L 557.998779296875 911.0700073242188 L 557.998779296875 975.6699829101562 L 569.0687866210938 975.6699829101562 L 569.0687866210938 981 L 528.8087768554688 981 L 528.8087768554688 975.6699829101562 ZM 618.6181640625 973.280029296875 C 613.3381958007812 979.3400268554688 606.2548828125 982.3699951171875 597.3681640625 982.3699951171875 C 590.6215209960938 982.3699951171875 584.8081665039062 980.489990234375 579.9281616210938 976.72998046875 C 575.0548706054688 972.969970703125 572.6181640625 968.0466918945312 572.6181640625 961.9600219726562 C 572.6181640625 955.8800048828125 575.0115356445312 951.0966796875 579.7981567382812 947.6099853515625 C 584.5781860351562 944.1233520507812 590.7415161132812 942.3800048828125 598.2882080078125 942.3800048828125 C 605.8281860351562 942.3800048828125 612.128173828125 944.27001953125 617.1881713867188 948.0499877929688 L 617.1881713867188 931.780029296875 C 617.1881713867188 926.2666625976562 616.5048828125 922.530029296875 615.13818359375 920.5700073242188 C 613.7715454101562 918.6099853515625 612.1648559570312 917.2433471679688 610.3181762695312 916.469970703125 C 608.4714965820312 915.6966552734375 606.4315185546875 915.3099975585938 604.1981811523438 915.3099975585938 C 600.6915283203125 915.3099975585938 597.7282104492188 915.7066650390625 595.3081665039062 916.5 C 592.8948364257812 917.2999877929688 591.2781982421875 918.1099853515625 590.4581909179688 918.9299926757812 C 592.5581665039062 919.5700073242188 594.1748657226562 921.163330078125 595.3081665039062 923.7100219726562 C 595.6748657226562 924.6233520507812 595.8582153320312 925.719970703125 595.8582153320312 927 C 595.8582153320312 929.5066528320312 594.9481811523438 931.5900268554688 593.128173828125 933.25 C 591.301513671875 934.9166870117188 589.4782104492188 935.75 587.658203125 935.75 C 584.46484375 935.75 581.9815063476562 934.9066772460938 580.2081909179688 933.219970703125 C 578.4281616210938 931.5333251953125 577.5382080078125 929.5033569335938 577.5382080078125 927.1300048828125 C 577.5382080078125 924.7633056640625 577.9714965820312 922.816650390625 578.8381958007812 921.2899780273438 C 579.704833984375 919.7633056640625 580.8681640625 918.3833618164062 582.3281860351562 917.1500244140625 C 585.1082153320312 914.8300170898438 588.6048583984375 913.0533447265625 592.8181762695312 911.8200073242188 C 597.031494140625 910.586669921875 600.98486328125 909.969970703125 604.6781616210938 909.969970703125 C 614.9315185546875 909.969970703125 622.5181884765625 912.0466918945312 627.4381713867188 916.2000122070312 C 632.3648681640625 920.3466796875 634.8281860351562 926.1333618164062 634.8281860351562 933.5599975585938 L 634.8281860351562 969.989990234375 C 634.8281860351562 973.7766723632812 635.7615356445312 975.6699829101562 637.628173828125 975.6699829101562 C 639.494873046875 975.6699829101562 641.2948608398438 974.530029296875 643.0281982421875 972.25 L 646.5781860351562 975.1900024414062 C 643.48486328125 979.8833618164062 638.4281616210938 982.22998046875 631.408203125 982.22998046875 C 628.9481811523438 982.22998046875 626.4515380859375 981.4566650390625 623.918212890625 979.9099731445312 C 621.3915405273438 978.356689453125 619.6248779296875 976.1466674804688 618.6181640625 973.280029296875 M 617.38818359375 954.1300048828125 C 613.5148315429688 950.3499755859375 609.2781982421875 948.4600219726562 604.6781616210938 948.4600219726562 C 600.0781860351562 948.4600219726562 596.6148681640625 949.5433349609375 594.2882080078125 951.7100219726562 C 591.9615478515625 953.8766479492188 590.7981567382812 957.3499755859375 590.7981567382812 962.1300048828125 C 590.7981567382812 969.1966552734375 593.281494140625 973.47998046875 598.2481689453125 974.97998046875 C 599.6614990234375 975.4400024414062 601.0982055664062 975.6699829101562 602.5581665039062 975.6699829101562 C 606.704833984375 975.6699829101562 610.6715087890625 974.0733032226562 614.4581909179688 970.8800048828125 C 615.551513671875 969.9266357421875 616.5281982421875 968.9033203125 617.38818359375 967.8099975585938 L 617.38818359375 954.1300048828125 ZM 655.45751953125 971.3599853515625 C 655.45751953125 966.4866943359375 657.6441650390625 963.0933227539062 662.0175170898438 961.1799926757812 C 663.3441772460938 960.6333618164062 664.7808227539062 960.3599853515625 666.3275146484375 960.3599853515625 C 669.427490234375 960.3599853515625 672.024169921875 961.4066772460938 674.1174926757812 963.5 C 676.217529296875 965.5933227539062 677.2675170898438 968.2033081054688 677.2675170898438 971.3300170898438 C 677.2675170898438 974.4500122070312 676.2308349609375 977.0466918945312 674.1575317382812 979.1199951171875 C 672.0841674804688 981.193359375 669.4841918945312 982.22998046875 666.3575439453125 982.22998046875 C 663.2374877929688 982.22998046875 660.640869140625 981.193359375 658.5675048828125 979.1199951171875 C 656.4942016601562 977.0466918945312 655.45751953125 974.4600219726562 655.45751953125 971.3599853515625 Z" transform="matrix(4.431121826171875, 0, 0, 4.431121826171875, -2006.7825927734375, -3885.082275390625)" style="fill: rgb(77, 77, 77); white-space: pre; color: rgb(66, 66, 66); fill-opacity: 1;"/></svg>