<?xml version="1.0" encoding="utf-8"?>
<svg id="master-artboard" viewBox="0 0 1000.2476806640625 475.8837890625" version="1.1" xmlns="http://www.w3.org/2000/svg" x="0px" y="0px" style="enable-background:new 0 0 1400 980;" width="1000.2476806640625px" height="475.8837890625px"><rect id="ee-background" x="0" y="0" width="1000.2476806640625" height="475.8837890625" style="fill: white; fill-opacity: 0; pointer-events: none;"/><defs><style id="ee-google-fonts">@import url(https://fonts.googleapis.com/css?family=Cantata+One:400);</style></defs>


<path d="M 500.2394714355469 973.280029296875 C 494.95947265625 979.3400268554688 487.8761291503906 982.3699951171875 478.9894714355469 982.3699951171875 C 472.2427978515625 982.3699951171875 466.4294738769531 980.489990234375 461.5494689941406 976.72998046875 C 456.6761169433594 972.969970703125 454.2394714355469 968.0466918945312 454.2394714355469 961.9600219726562 C 454.2394714355469 955.8800048828125 456.6327819824219 951.0966796875 461.4194641113281 947.6099853515625 C 466.199462890625 944.1233520507812 472.36279296875 942.3800048828125 479.9094543457031 942.3800048828125 C 487.449462890625 942.3800048828125 493.74945068359375 944.27001953125 498.8094482421875 948.0499877929688 L 498.8094482421875 931.780029296875 C 498.8094482421875 926.2666625976562 498.1261291503906 922.530029296875 496.75946044921875 920.5700073242188 C 495.3927917480469 918.6099853515625 493.7861328125 917.2433471679688 491.939453125 916.469970703125 C 490.0928039550781 915.6966552734375 488.05279541015625 915.3099975585938 485.8194580078125 915.3099975585938 C 482.31280517578125 915.3099975585938 479.3494567871094 915.7066650390625 476.9294738769531 916.5 C 474.5161437988281 917.2999877929688 472.89947509765625 918.1099853515625 472.0794677734375 918.9299926757812 C 474.1794738769531 919.5700073242188 475.796142578125 921.163330078125 476.9294738769531 923.7100219726562 C 477.296142578125 924.6233520507812 477.4794616699219 925.719970703125 477.4794616699219 927 C 477.4794616699219 929.5066528320312 476.5694580078125 931.5900268554688 474.74945068359375 933.25 C 472.92279052734375 934.9166870117188 471.0994567871094 935.75 469.2794494628906 935.75 C 466.08612060546875 935.75 463.602783203125 934.9066772460938 461.8294677734375 933.219970703125 C 460.0494689941406 931.5333251953125 459.1594543457031 929.5033569335938 459.1594543457031 927.1300048828125 C 459.1594543457031 924.7633056640625 459.5928039550781 922.816650390625 460.45947265625 921.2899780273438 C 461.3261413574219 919.7633056640625 462.4894714355469 918.3833618164062 463.949462890625 917.1500244140625 C 466.7294616699219 914.8300170898438 470.22613525390625 913.0533447265625 474.439453125 911.8200073242188 C 478.6528015136719 910.586669921875 482.60614013671875 909.969970703125 486.2994689941406 909.969970703125 C 496.55279541015625 909.969970703125 504.13946533203125 912.0466918945312 509.0594482421875 916.2000122070312 C 513.9861450195312 920.3466796875 516.449462890625 926.1333618164062 516.449462890625 933.5599975585938 L 516.449462890625 969.989990234375 C 516.449462890625 973.7766723632812 517.3828125 975.6699829101562 519.2494506835938 975.6699829101562 C 521.1161499023438 975.6699829101562 522.9161376953125 974.530029296875 524.6494750976562 972.25 L 528.199462890625 975.1900024414062 C 525.1061401367188 979.8833618164062 520.0494384765625 982.22998046875 513.0294799804688 982.22998046875 C 510.5694580078125 982.22998046875 508.0727844238281 981.4566650390625 505.5394592285156 979.9099731445312 C 503.0127868652344 978.356689453125 501.2461242675781 976.1466674804688 500.2394714355469 973.280029296875 M 499.00946044921875 954.1300048828125 C 495.1361389160156 950.3499755859375 490.89947509765625 948.4600219726562 486.2994689941406 948.4600219726562 C 481.699462890625 948.4600219726562 478.23614501953125 949.5433349609375 475.9094543457031 951.7100219726562 C 473.5827941894531 953.8766479492188 472.4194641113281 957.3499755859375 472.4194641113281 962.1300048828125 C 472.4194641113281 969.1966552734375 474.9028015136719 973.47998046875 479.8694763183594 974.97998046875 C 481.2828063964844 975.4400024414062 482.7194519042969 975.6699829101562 484.1794738769531 975.6699829101562 C 488.3261413574219 975.6699829101562 492.29278564453125 974.0733032226562 496.0794677734375 970.8800048828125 C 497.17279052734375 969.9266357421875 498.14947509765625 968.9033203125 499.00946044921875 967.8099975585938 L 499.00946044921875 954.1300048828125 ZM 555.6088256835938 894.3900146484375 C 555.6088256835938 894.3900146484375 555.1521606445312 894.8466796875 554.2388305664062 895.760009765625 C 553.3255004882812 896.6666870117188 551.5722045898438 897.1199951171875 548.9788818359375 897.1199951171875 C 546.3788452148438 897.1199951171875 544.1455078125 896.219970703125 542.2788696289062 894.4199829101562 C 540.405517578125 892.6199951171875 539.4688720703125 890.7166748046875 539.4688720703125 888.7100219726562 C 539.4688720703125 885.3433227539062 540.3822021484375 882.7466430664062 542.2088623046875 880.9199829101562 C 544.0288696289062 879.0999755859375 546.26220703125 878.1900024414062 548.9088745117188 878.1900024414062 C 553.1021728515625 878.1900024414062 555.9955444335938 880.1033325195312 557.5888671875 883.9299926757812 C 558.0888671875 885.0700073242188 558.3388671875 886.2999877929688 558.3388671875 887.6199951171875 C 558.3388671875 890.306640625 557.4288330078125 892.5633544921875 555.6088256835938 894.3900146484375 M 528.808837890625 975.6699829101562 L 539.8788452148438 975.6699829101562 L 539.8788452148438 916.4000244140625 L 529.7688598632812 916.4000244140625 L 529.7688598632812 911.0700073242188 L 557.9988403320312 911.0700073242188 L 557.9988403320312 975.6699829101562 L 569.06884765625 975.6699829101562 L 569.06884765625 981 L 528.808837890625 981 L 528.808837890625 975.6699829101562 ZM 618.6182861328125 973.280029296875 C 613.3383178710938 979.3400268554688 606.2550048828125 982.3699951171875 597.3682861328125 982.3699951171875 C 590.6216430664062 982.3699951171875 584.8082885742188 980.489990234375 579.9282836914062 976.72998046875 C 575.0549926757812 972.969970703125 572.6182861328125 968.0466918945312 572.6182861328125 961.9600219726562 C 572.6182861328125 955.8800048828125 575.0116577148438 951.0966796875 579.7982788085938 947.6099853515625 C 584.5783081054688 944.1233520507812 590.7416381835938 942.3800048828125 598.288330078125 942.3800048828125 C 605.8283081054688 942.3800048828125 612.1282958984375 944.27001953125 617.1882934570312 948.0499877929688 L 617.1882934570312 931.780029296875 C 617.1882934570312 926.2666625976562 616.5050048828125 922.530029296875 615.1383056640625 920.5700073242188 C 613.7716674804688 918.6099853515625 612.1649780273438 917.2433471679688 610.3182983398438 916.469970703125 C 608.4716186523438 915.6966552734375 606.431640625 915.3099975585938 604.1983032226562 915.3099975585938 C 600.691650390625 915.3099975585938 597.7283325195312 915.7066650390625 595.3082885742188 916.5 C 592.8949584960938 917.2999877929688 591.2783203125 918.1099853515625 590.4583129882812 918.9299926757812 C 592.5582885742188 919.5700073242188 594.1749877929688 921.163330078125 595.3082885742188 923.7100219726562 C 595.6749877929688 924.6233520507812 595.8583374023438 925.719970703125 595.8583374023438 927 C 595.8583374023438 929.5066528320312 594.9483032226562 931.5900268554688 593.1282958984375 933.25 C 591.3016357421875 934.9166870117188 589.4783325195312 935.75 587.6583251953125 935.75 C 584.4649658203125 935.75 581.9816284179688 934.9066772460938 580.2083129882812 933.219970703125 C 578.4282836914062 931.5333251953125 577.538330078125 929.5033569335938 577.538330078125 927.1300048828125 C 577.538330078125 924.7633056640625 577.9716186523438 922.816650390625 578.8383178710938 921.2899780273438 C 579.7049560546875 919.7633056640625 580.8682861328125 918.3833618164062 582.3283081054688 917.1500244140625 C 585.1083374023438 914.8300170898438 588.60498046875 913.0533447265625 592.8182983398438 911.8200073242188 C 597.0316162109375 910.586669921875 600.9849853515625 909.969970703125 604.6782836914062 909.969970703125 C 614.931640625 909.969970703125 622.518310546875 912.0466918945312 627.4382934570312 916.2000122070312 C 632.364990234375 920.3466796875 634.8283081054688 926.1333618164062 634.8283081054688 933.5599975585938 L 634.8283081054688 969.989990234375 C 634.8283081054688 973.7766723632812 635.7616577148438 975.6699829101562 637.6282958984375 975.6699829101562 C 639.4949951171875 975.6699829101562 641.2949829101562 974.530029296875 643.0283203125 972.25 L 646.5783081054688 975.1900024414062 C 643.4849853515625 979.8833618164062 638.4282836914062 982.22998046875 631.4083251953125 982.22998046875 C 628.9483032226562 982.22998046875 626.45166015625 981.4566650390625 623.9183349609375 979.9099731445312 C 621.3916625976562 978.356689453125 619.625 976.1466674804688 618.6182861328125 973.280029296875 M 617.3883056640625 954.1300048828125 C 613.5149536132812 950.3499755859375 609.2783203125 948.4600219726562 604.6782836914062 948.4600219726562 C 600.0783081054688 948.4600219726562 596.614990234375 949.5433349609375 594.288330078125 951.7100219726562 C 591.961669921875 953.8766479492188 590.7982788085938 957.3499755859375 590.7982788085938 962.1300048828125 C 590.7982788085938 969.1966552734375 593.2816162109375 973.47998046875 598.248291015625 974.97998046875 C 599.66162109375 975.4400024414062 601.0983276367188 975.6699829101562 602.5582885742188 975.6699829101562 C 606.7049560546875 975.6699829101562 610.671630859375 974.0733032226562 614.4583129882812 970.8800048828125 C 615.5516357421875 969.9266357421875 616.5283203125 968.9033203125 617.3883056640625 967.8099975585938 L 617.3883056640625 954.1300048828125 ZM 655.4577026367188 971.3599853515625 C 655.4577026367188 966.4866943359375 657.6443481445312 963.0933227539062 662.0177001953125 961.1799926757812 C 663.3443603515625 960.6333618164062 664.781005859375 960.3599853515625 666.3276977539062 960.3599853515625 C 669.4276733398438 960.3599853515625 672.0243530273438 961.4066772460938 674.11767578125 963.5 C 676.2177124023438 965.5933227539062 677.2677001953125 968.2033081054688 677.2677001953125 971.3300170898438 C 677.2677001953125 974.4500122070312 676.2310180664062 977.0466918945312 674.15771484375 979.1199951171875 C 672.0843505859375 981.193359375 669.484375 982.22998046875 666.3577270507812 982.22998046875 C 663.2376708984375 982.22998046875 660.6410522460938 981.193359375 658.5676879882812 979.1199951171875 C 656.494384765625 977.0466918945312 655.4577026367188 974.4600219726562 655.4577026367188 971.3599853515625 Z" transform="matrix(4.431121826171875, 0, 0, 4.431121826171875, -2006.7825927734375, -3885.082275390625)" style="fill: rgb(224, 224, 224); white-space: pre; color: rgb(77, 77, 77); fill-opacity: 1;"/></svg>