<?xml version="1.0" encoding="utf-8"?>
<svg id="master-artboard" viewBox="0 0 1000.2476806640625 475.8837890625" version="1.1" xmlns="http://www.w3.org/2000/svg" x="0px" y="0px" style="enable-background:new 0 0 1400 980;" width="1000.2476806640625px" height="475.8837890625px"><rect id="ee-background" x="0" y="0" width="1000.2476806640625" height="475.8837890625" style="fill: white; fill-opacity: 0; pointer-events: none;"/><defs><style id="ee-google-fonts">@import url(https://fonts.googleapis.com/css?family=Cantata+One:400);</style></defs>


<path d="M 500.2394714355469 973.280029296875 C 494.95947265625 979.3400268554688 487.8761291503906 982.3699951171875 478.9894714355469 982.3699951171875 C 472.2427978515625 982.3699951171875 466.4294738769531 980.489990234375 461.5494689941406 976.72998046875 C 456.6761169433594 972.969970703125 454.2394714355469 968.0466918945312 454.2394714355469 961.9600219726562 C 454.2394714355469 955.8800048828125 456.6327819824219 951.0966796875 461.4194641113281 947.6099853515625 C 466.199462890625 944.1233520507812 472.36279296875 942.3800048828125 479.9094543457031 942.3800048828125 C 487.449462890625 942.3800048828125 493.74945068359375 944.27001953125 498.8094482421875 948.0499877929688 L 498.8094482421875 931.780029296875 C 498.8094482421875 926.2666625976562 498.1261291503906 922.530029296875 496.75946044921875 920.5700073242188 C 495.3927917480469 918.6099853515625 493.7861328125 917.2433471679688 491.939453125 916.469970703125 C 490.0928039550781 915.6966552734375 488.05279541015625 915.3099975585938 485.8194580078125 915.3099975585938 C 482.31280517578125 915.3099975585938 479.3494567871094 915.7066650390625 476.9294738769531 916.5 C 474.5161437988281 917.2999877929688 472.89947509765625 918.1099853515625 472.0794677734375 918.9299926757812 C 474.1794738769531 919.5700073242188 475.796142578125 921.163330078125 476.9294738769531 923.7100219726562 C 477.296142578125 924.6233520507812 477.4794616699219 925.719970703125 477.4794616699219 927 C 477.4794616699219 929.5066528320312 476.5694580078125 931.5900268554688 474.74945068359375 933.25 C 472.92279052734375 934.9166870117188 471.0994567871094 935.75 469.2794494628906 935.75 C 466.08612060546875 935.75 463.602783203125 934.9066772460938 461.8294677734375 933.219970703125 C 460.0494689941406 931.5333251953125 459.1594543457031 929.5033569335938 459.1594543457031 927.1300048828125 C 459.1594543457031 924.7633056640625 459.5928039550781 922.816650390625 460.45947265625 921.2899780273438 C 461.3261413574219 919.7633056640625 462.4894714355469 918.3833618164062 463.949462890625 917.1500244140625 C 466.7294616699219 914.8300170898438 470.22613525390625 913.0533447265625 474.439453125 911.8200073242188 C 478.6528015136719 910.586669921875 482.60614013671875 909.969970703125 486.2994689941406 909.969970703125 C 496.55279541015625 909.969970703125 504.13946533203125 912.0466918945312 509.0594482421875 916.2000122070312 C 513.9861450195312 920.3466796875 516.449462890625 926.1333618164062 516.449462890625 933.5599975585938 L 516.449462890625 969.989990234375 C 516.449462890625 973.7766723632812 517.3828125 975.6699829101562 519.2494506835938 975.6699829101562 C 521.1161499023438 975.6699829101562 522.9161376953125 974.530029296875 524.6494750976562 972.25 L 528.199462890625 975.1900024414062 C 525.1061401367188 979.8833618164062 520.0494384765625 982.22998046875 513.0294799804688 982.22998046875 C 510.5694580078125 982.22998046875 508.0727844238281 981.4566650390625 505.5394592285156 979.9099731445312 C 503.0127868652344 978.356689453125 501.2461242675781 976.1466674804688 500.2394714355469 973.280029296875 M 499.00946044921875 954.1300048828125 C 495.1361389160156 950.3499755859375 490.89947509765625 948.4600219726562 486.2994689941406 948.4600219726562 C 481.699462890625 948.4600219726562 478.23614501953125 949.5433349609375 475.9094543457031 951.7100219726562 C 473.5827941894531 953.8766479492188 472.4194641113281 957.3499755859375 472.4194641113281 962.1300048828125 C 472.4194641113281 969.1966552734375 474.9028015136719 973.47998046875 479.8694763183594 974.97998046875 C 481.2828063964844 975.4400024414062 482.7194519042969 975.6699829101562 484.1794738769531 975.6699829101562 C 488.3261413574219 975.6699829101562 492.29278564453125 974.0733032226562 496.0794677734375 970.8800048828125 C 497.17279052734375 969.9266357421875 498.14947509765625 968.9033203125 499.00946044921875 967.8099975585938 L 499.00946044921875 954.1300048828125 ZM 555.608642578125 894.3900146484375 C 555.608642578125 894.3900146484375 555.1519775390625 894.8466796875 554.2386474609375 895.760009765625 C 553.3253173828125 896.6666870117188 551.572021484375 897.1199951171875 548.9786987304688 897.1199951171875 C 546.378662109375 897.1199951171875 544.1453247070312 896.219970703125 542.2786865234375 894.4199829101562 C 540.4053344726562 892.6199951171875 539.4686889648438 890.7166748046875 539.4686889648438 888.7100219726562 C 539.4686889648438 885.3433227539062 540.3820190429688 882.7466430664062 542.2086791992188 880.9199829101562 C 544.0286865234375 879.0999755859375 546.2620239257812 878.1900024414062 548.90869140625 878.1900024414062 C 553.1019897460938 878.1900024414062 555.995361328125 880.1033325195312 557.5886840820312 883.9299926757812 C 558.0886840820312 885.0700073242188 558.3386840820312 886.2999877929688 558.3386840820312 887.6199951171875 C 558.3386840820312 890.306640625 557.4286499023438 892.5633544921875 555.608642578125 894.3900146484375 M 528.8086547851562 975.6699829101562 L 539.878662109375 975.6699829101562 L 539.878662109375 916.4000244140625 L 529.7686767578125 916.4000244140625 L 529.7686767578125 911.0700073242188 L 557.9986572265625 911.0700073242188 L 557.9986572265625 975.6699829101562 L 569.0686645507812 975.6699829101562 L 569.0686645507812 981 L 528.8086547851562 981 L 528.8086547851562 975.6699829101562 ZM 618.6179809570312 973.280029296875 C 613.3380126953125 979.3400268554688 606.254638671875 982.3699951171875 597.3679809570312 982.3699951171875 C 590.621337890625 982.3699951171875 584.8079833984375 980.489990234375 579.927978515625 976.72998046875 C 575.0546875 972.969970703125 572.6179809570312 968.0466918945312 572.6179809570312 961.9600219726562 C 572.6179809570312 955.8800048828125 575.0113525390625 951.0966796875 579.7979736328125 947.6099853515625 C 584.5780029296875 944.1233520507812 590.7413330078125 942.3800048828125 598.2880249023438 942.3800048828125 C 605.8280029296875 942.3800048828125 612.1279907226562 944.27001953125 617.18798828125 948.0499877929688 L 617.18798828125 931.780029296875 C 617.18798828125 926.2666625976562 616.504638671875 922.530029296875 615.1380004882812 920.5700073242188 C 613.7713623046875 918.6099853515625 612.1646728515625 917.2433471679688 610.3179931640625 916.469970703125 C 608.4713134765625 915.6966552734375 606.4313354492188 915.3099975585938 604.197998046875 915.3099975585938 C 600.6913452148438 915.3099975585938 597.72802734375 915.7066650390625 595.3079833984375 916.5 C 592.8946533203125 917.2999877929688 591.2780151367188 918.1099853515625 590.4580078125 918.9299926757812 C 592.5579833984375 919.5700073242188 594.1746826171875 921.163330078125 595.3079833984375 923.7100219726562 C 595.6746826171875 924.6233520507812 595.8580322265625 925.719970703125 595.8580322265625 927 C 595.8580322265625 929.5066528320312 594.947998046875 931.5900268554688 593.1279907226562 933.25 C 591.3013305664062 934.9166870117188 589.47802734375 935.75 587.6580200195312 935.75 C 584.4646606445312 935.75 581.9813232421875 934.9066772460938 580.2080078125 933.219970703125 C 578.427978515625 931.5333251953125 577.5380249023438 929.5033569335938 577.5380249023438 927.1300048828125 C 577.5380249023438 924.7633056640625 577.9713134765625 922.816650390625 578.8380126953125 921.2899780273438 C 579.7046508789062 919.7633056640625 580.8679809570312 918.3833618164062 582.3280029296875 917.1500244140625 C 585.1080322265625 914.8300170898438 588.6046752929688 913.0533447265625 592.8179931640625 911.8200073242188 C 597.0313110351562 910.586669921875 600.9846801757812 909.969970703125 604.677978515625 909.969970703125 C 614.9313354492188 909.969970703125 622.5180053710938 912.0466918945312 627.43798828125 916.2000122070312 C 632.3646850585938 920.3466796875 634.8280029296875 926.1333618164062 634.8280029296875 933.5599975585938 L 634.8280029296875 969.989990234375 C 634.8280029296875 973.7766723632812 635.7613525390625 975.6699829101562 637.6279907226562 975.6699829101562 C 639.4946899414062 975.6699829101562 641.294677734375 974.530029296875 643.0280151367188 972.25 L 646.5780029296875 975.1900024414062 C 643.4846801757812 979.8833618164062 638.427978515625 982.22998046875 631.4080200195312 982.22998046875 C 628.947998046875 982.22998046875 626.4513549804688 981.4566650390625 623.9180297851562 979.9099731445312 C 621.391357421875 978.356689453125 619.6246948242188 976.1466674804688 618.6179809570312 973.280029296875 M 617.3880004882812 954.1300048828125 C 613.5146484375 950.3499755859375 609.2780151367188 948.4600219726562 604.677978515625 948.4600219726562 C 600.0780029296875 948.4600219726562 596.6146850585938 949.5433349609375 594.2880249023438 951.7100219726562 C 591.9613647460938 953.8766479492188 590.7979736328125 957.3499755859375 590.7979736328125 962.1300048828125 C 590.7979736328125 969.1966552734375 593.2813110351562 973.47998046875 598.2479858398438 974.97998046875 C 599.6613159179688 975.4400024414062 601.0980224609375 975.6699829101562 602.5579833984375 975.6699829101562 C 606.7046508789062 975.6699829101562 610.6713256835938 974.0733032226562 614.4580078125 970.8800048828125 C 615.5513305664062 969.9266357421875 616.5280151367188 968.9033203125 617.3880004882812 967.8099975585938 L 617.3880004882812 954.1300048828125 ZM 655.4572143554688 971.3599853515625 C 655.4572143554688 966.4866943359375 657.6438598632812 963.0933227539062 662.0172119140625 961.1799926757812 C 663.3438720703125 960.6333618164062 664.780517578125 960.3599853515625 666.3272094726562 960.3599853515625 C 669.4271850585938 960.3599853515625 672.0238647460938 961.4066772460938 674.1171875 963.5 C 676.2172241210938 965.5933227539062 677.2672119140625 968.2033081054688 677.2672119140625 971.3300170898438 C 677.2672119140625 974.4500122070312 676.2305297851562 977.0466918945312 674.1572265625 979.1199951171875 C 672.0838623046875 981.193359375 669.48388671875 982.22998046875 666.3572387695312 982.22998046875 C 663.2371826171875 982.22998046875 660.6405639648438 981.193359375 658.5671997070312 979.1199951171875 C 656.493896484375 977.0466918945312 655.4572143554688 974.4600219726562 655.4572143554688 971.3599853515625 Z" transform="matrix(4.431121826171875, 0, 0, 4.431121826171875, -2006.7825927734375, -3885.082275390625)" style="fill: rgb(98, 98, 98); white-space: pre; color: rgb(110, 110, 110); fill-opacity: 1;"/></svg>